<svg width="1269" height="322" viewBox="0 0 1269 322" fill="none" xmlns="http://www.w3.org/2000/svg">
<path d="M70.2393 224.219C45.3997 237.116 21.6767 255.697 38.3603 271.951C39.8369 273.389 43.8991 276.469 50.0634 277.219C57.7688 278.155 66.6116 276.408 73.134 268.927C78.3519 262.943 81.0606 245.092 81.7628 236.915C85.9677 248.581 98.7394 265.865 113.239 270.365C129.349 275.365 139.594 266.085 140.739 259.865C140.987 254.445 134.956 238.974 122.085 229.228C107.739 218.365 96.7394 215.865 87.6134 213.876C86.1478 213.557 99.4408 204.291 100.566 171.917C100.187 155.714 97.9588 136.654 85.7393 131.365C75.7599 127.047 61.0833 143.957 57.7338 153.011C55.7529 158.366 54.3828 165.661 56.4611 173.781C58.7773 182.83 66.9165 201.592 68.7498 203.859C53.262 187.628 40.2394 184.865 34.2394 184.865C28.2394 184.865 19.8091 188.219 18.7393 189.219C17.2491 190.612 5.23951 199.218 10.2394 211.219C14.4059 221.219 30.2393 225.362 36.7393 226.219C43.1393 227.019 52.4059 226.552 56.2393 226.219L70.2393 224.219Z" fill="#FF3EA3"/>
<path d="M20 3.37758C35.3333 -4.12242 82.5 0.0678959 109.5 24.0679C128 44.0679 141.5 60.0679 159.5 112.068L182.5 174.878C211 107.068 217 85.5679 276 15.3776C269.5 72.5 283.792 160 287 178C296 228.5 321 302.878 387.5 302.878C370.333 309.378 334.5 311.758 313 298.568C281.783 279.416 270 252.878 263 231.878C251.4 208.83 241.667 122.005 237.5 81.3777C218 102.878 185.014 168.878 169 257.878C148.5 212.878 110 101.878 93.5 68.0679C56.654 -7.4321 26 3.37758 20 3.37758Z" fill="#38355E"/>
<path d="M425.203 280.075C417.068 280.075 410.594 277.806 405.779 273.269C401.02 268.675 398.641 262.367 398.641 254.343C398.641 250.192 399.388 246.346 400.882 242.805C402.431 239.208 405.088 236.053 408.851 233.342C412.669 230.575 417.981 228.361 424.788 226.701C431.65 225.041 440.394 224.073 451.019 223.796C451.019 218.76 449.746 215.135 447.2 212.922C444.71 210.708 440.947 209.602 435.911 209.602C431.373 209.602 427.666 210.376 424.788 211.926C421.91 213.475 420.112 214.527 419.393 215.08C418.618 215.744 417.677 215.993 416.57 215.827C415.076 215.606 413.471 215.218 411.756 214.665C410.096 214.112 408.297 213.475 406.36 212.756C406.084 212.645 405.779 212.479 405.447 212.258C405.115 211.981 404.922 211.594 404.866 211.096C404.866 210.819 404.894 210.487 404.949 210.1C405.005 209.657 405.143 208.882 405.364 207.775C405.586 206.669 405.918 205.313 406.36 203.708C406.803 202.048 407.218 200.775 407.605 199.89C408.104 198.949 408.934 198.063 410.096 197.233C411.036 196.459 413.886 195.214 418.646 193.498C423.405 191.783 430.294 190.925 439.314 190.925C464.161 190.925 476.585 203.016 476.585 227.199V274.182C476.585 275.233 476.281 276.146 475.672 276.921C475.118 277.64 474.15 278 472.767 278H460.315C459.43 278 458.628 277.889 457.908 277.668C457.244 277.391 456.608 276.893 455.999 276.174L450.853 269.533H450.271C447.726 273.241 444.295 275.925 439.979 277.585C435.717 279.245 430.792 280.075 425.203 280.075ZM434.334 260.817C439.425 260.817 443.271 259.517 445.872 256.916C448.473 254.315 450.133 251.631 450.853 248.864V239.65C443.16 239.65 437.378 240.259 433.504 241.477C429.686 242.639 427.14 244.188 425.867 246.125C424.594 248.007 423.958 250.054 423.958 252.268C423.958 255.477 424.954 257.718 426.946 258.991C428.938 260.209 431.401 260.817 434.334 260.817ZM537.997 273.601C537.997 275.261 537.638 276.423 536.918 277.087C536.254 277.696 535.092 278 533.432 278H516.332C514.672 278 513.482 277.696 512.763 277.087C512.099 276.423 511.767 275.261 511.767 273.601V161.291C511.767 159.963 512.044 158.939 512.597 158.22C514.921 155.176 518.325 151.883 522.807 148.342C523.582 147.788 524.274 147.512 524.882 147.512C525.602 147.512 526.293 147.788 526.957 148.342C529.337 150.168 531.329 151.883 532.934 153.488C534.594 155.093 536.005 156.67 537.167 158.22C537.721 158.939 537.997 159.963 537.997 161.291V226.452H538.994C547.405 226.452 553.105 224.958 556.093 221.97C559.137 218.926 560.659 214.72 560.659 209.353V204.87C560.659 203.542 560.935 202.518 561.489 201.799C563.813 198.755 567.216 195.463 571.699 191.921C572.473 191.368 573.165 191.091 573.774 191.091C574.493 191.091 575.185 191.368 575.849 191.921C578.229 193.747 580.221 195.463 581.826 197.067C583.486 198.672 584.897 200.249 586.059 201.799C586.612 202.518 586.889 203.542 586.889 204.87V209.353C586.889 212.507 586.253 215.993 584.98 219.812C583.762 223.63 581.521 227.006 578.256 229.938C574.991 232.871 570.343 234.587 564.311 235.085V235.5C568.959 237.548 572.971 240.259 576.347 243.635C579.723 247.01 582.545 250.635 584.814 254.509C587.083 258.327 588.826 262.007 590.043 265.549C591.316 269.035 592.146 271.996 592.534 274.431C592.921 276.81 592.119 278 590.126 278H568.295C566.414 278 565.335 276.866 565.058 274.597C564.671 271.996 563.813 268.952 562.485 265.466C561.212 261.924 559.469 258.465 557.255 255.09C555.097 251.714 552.468 248.92 549.37 246.706C546.326 244.437 542.867 243.303 538.994 243.303H537.997V273.601ZM662.496 280.075C653.144 280.075 645.009 278.581 638.092 275.593C631.174 272.549 625.806 267.845 621.988 261.481C618.17 255.118 616.261 246.9 616.261 236.828C616.261 221.721 620.134 210.293 627.882 202.546C635.629 194.799 645.922 190.925 658.761 190.925C667.117 190.925 674.172 192.419 679.928 195.407C685.738 198.396 690.137 202.518 693.126 207.775C696.169 213.033 697.691 219.037 697.691 225.788C697.691 232.373 696.003 236.966 692.628 239.567C689.252 242.168 684.327 243.469 677.852 243.469H642.242C642.685 249.169 644.76 253.513 648.468 256.501C652.231 259.489 657.322 260.983 663.741 260.983C668.832 260.983 672.9 260.236 675.943 258.742C679.042 257.193 681.2 255.975 682.418 255.09C683.469 254.315 684.659 253.955 685.987 254.011C687.039 254.011 688.533 254.232 690.47 254.675C692.462 255.062 694.426 255.809 696.363 256.916C697.747 257.635 698.438 258.632 698.438 259.904C698.438 260.624 698.3 261.647 698.023 262.976C697.857 263.75 697.581 264.885 697.193 266.379C696.806 267.818 696.308 269.174 695.699 270.446C695.367 271.055 694.841 271.636 694.122 272.189C693.015 272.964 691.217 273.988 688.726 275.261C686.291 276.534 682.943 277.64 678.682 278.581C674.421 279.577 669.026 280.075 662.496 280.075ZM642.076 226.452H669.137C671.959 226.452 673.37 225.152 673.37 222.551C673.37 218.622 672.125 215.329 669.635 212.673C667.2 209.961 663.52 208.605 658.595 208.605C653.227 208.605 649.27 210.321 646.724 213.752C644.234 217.183 642.685 221.416 642.076 226.452ZM903.843 280.075C892.332 280.075 882.316 277.862 873.794 273.435C865.272 269.007 858.659 262.339 853.955 253.43C849.307 244.52 846.982 233.397 846.982 220.061C846.982 198.866 852.157 183.067 862.505 172.663C872.853 162.204 887.269 156.975 905.752 156.975C923.073 156.975 936.769 162.093 946.841 172.331C956.912 182.513 961.948 197.621 961.948 217.653C961.948 231.82 959.596 243.524 954.893 252.766C950.189 261.952 943.493 268.814 934.805 273.352C926.117 277.834 915.796 280.075 903.843 280.075ZM904.341 257.663C914.302 257.663 921.689 254.094 926.504 246.955C931.318 239.816 933.726 230.547 933.726 219.147C933.726 205.922 931.457 195.988 926.919 189.348C922.381 182.707 915.076 179.387 905.005 179.387C885.138 179.387 875.205 192.474 875.205 218.649C875.205 230.326 877.585 239.761 882.344 246.955C887.158 254.094 894.491 257.663 904.341 257.663ZM1012.24 270.28C1009.19 265.466 1006.18 259.932 1003.19 253.679C1000.26 247.37 997.573 241.006 995.138 234.587C992.759 228.112 990.849 222.219 989.411 216.906C987.972 211.538 987.252 207.416 987.252 204.538C987.252 203.431 987.557 202.518 988.165 201.799C990.711 198.645 994.336 195.352 999.039 191.921C999.87 191.368 1000.62 191.091 1001.28 191.091C1002 191.091 1002.75 191.368 1003.52 191.921C1006.07 193.747 1008.2 195.463 1009.91 197.067C1011.68 198.672 1013.18 200.249 1014.4 201.799C1015 202.518 1015.31 203.542 1015.31 204.87V204.455C1015.31 208.052 1015.95 212.784 1017.22 218.649C1018.55 224.46 1020.34 230.603 1022.61 237.077C1024.88 243.552 1027.51 249.501 1030.5 254.924H1030.91C1033.4 250.829 1035.62 246.402 1037.56 241.643C1039.49 236.883 1041.12 232.124 1042.45 227.365C1043.78 222.606 1044.78 218.234 1045.44 214.25C1046.16 210.266 1046.52 207.028 1046.52 204.538V204.87C1046.52 203.542 1046.8 202.518 1047.35 201.799C1048.62 200.249 1050.12 198.672 1051.83 197.067C1053.55 195.463 1055.62 193.747 1058.06 191.921C1058.83 191.368 1059.55 191.091 1060.22 191.091C1060.99 191.091 1061.71 191.368 1062.37 191.921C1064.86 193.747 1066.97 195.463 1068.68 197.067C1070.4 198.672 1071.86 200.249 1073.08 201.799C1073.64 202.518 1073.91 203.487 1073.91 204.704C1073.86 207.692 1073.08 211.898 1071.59 217.321C1070.09 222.689 1068.07 228.61 1065.53 235.085C1063.04 241.504 1060.24 247.84 1057.14 254.094C1054.05 260.292 1050.89 265.687 1047.68 270.28C1045.75 273.103 1044 275.095 1042.45 276.257C1040.9 277.419 1038.22 278 1034.4 278H1025.6C1021.62 278 1018.85 277.447 1017.3 276.34C1015.81 275.233 1014.12 273.213 1012.24 270.28ZM987.252 204.455V204.538C987.252 204.649 987.252 204.759 987.252 204.87V204.455ZM1073.91 204.538V204.87V204.704C1073.91 204.649 1073.91 204.593 1073.91 204.538ZM1144.54 280.075C1135.19 280.075 1127.05 278.581 1120.13 275.593C1113.22 272.549 1107.85 267.845 1104.03 261.481C1100.21 255.118 1098.3 246.9 1098.3 236.828C1098.3 221.721 1102.18 210.293 1109.92 202.546C1117.67 194.799 1127.96 190.925 1140.8 190.925C1149.16 190.925 1156.22 192.419 1161.97 195.407C1167.78 198.396 1172.18 202.518 1175.17 207.775C1178.21 213.033 1179.73 219.037 1179.73 225.788C1179.73 232.373 1178.05 236.966 1174.67 239.567C1171.3 242.168 1166.37 243.469 1159.9 243.469H1124.28C1124.73 249.169 1126.8 253.513 1130.51 256.501C1134.27 259.489 1139.36 260.983 1145.78 260.983C1150.88 260.983 1154.94 260.236 1157.99 258.742C1161.09 257.193 1163.24 255.975 1164.46 255.09C1165.51 254.315 1166.7 253.955 1168.03 254.011C1169.08 254.011 1170.58 254.232 1172.51 254.675C1174.5 255.062 1176.47 255.809 1178.41 256.916C1179.79 257.635 1180.48 258.632 1180.48 259.904C1180.48 260.624 1180.34 261.647 1180.07 262.976C1179.9 263.75 1179.62 264.885 1179.24 266.379C1178.85 267.818 1178.35 269.174 1177.74 270.446C1177.41 271.055 1176.88 271.636 1176.16 272.189C1175.06 272.964 1173.26 273.988 1170.77 275.261C1168.33 276.534 1164.99 277.64 1160.73 278.581C1156.46 279.577 1151.07 280.075 1144.54 280.075ZM1124.12 226.452H1151.18C1154 226.452 1155.41 225.152 1155.41 222.551C1155.41 218.622 1154.17 215.329 1151.68 212.673C1149.24 209.961 1145.56 208.605 1140.64 208.605C1135.27 208.605 1131.31 210.321 1128.77 213.752C1126.28 217.183 1124.73 221.416 1124.12 226.452ZM1237.83 208.771H1238.16C1242.31 197.261 1249.78 191.506 1260.57 191.506C1261.95 191.506 1263.09 191.589 1263.97 191.755C1264.86 191.866 1265.47 191.976 1265.8 192.087C1266.63 192.364 1267.05 193 1267.05 193.996V214.001C1267.05 215.716 1266.05 216.187 1264.06 215.412C1263.39 215.135 1262.42 214.859 1261.15 214.582C1259.93 214.25 1258.22 214.084 1256.01 214.084C1250.31 214.084 1245.85 216.187 1242.64 220.393C1239.43 224.543 1237.83 230.215 1237.83 237.409V273.601C1237.83 275.261 1237.47 276.423 1236.75 277.087C1236.08 277.696 1234.92 278 1233.26 278H1216.16C1214.5 278 1213.31 277.696 1212.59 277.087C1211.93 276.423 1211.6 275.261 1211.6 273.601V204.04C1211.6 202.712 1211.87 201.688 1212.43 200.969C1213.59 199.419 1214.97 197.842 1216.58 196.237C1218.24 194.632 1220.26 192.917 1222.64 191.091C1223.08 190.759 1223.52 190.537 1223.96 190.427C1224.41 190.316 1224.79 190.261 1225.13 190.261C1225.9 190.261 1226.68 190.537 1227.45 191.091C1232.04 194.688 1235.25 197.759 1237.08 200.305C1237.58 200.969 1237.83 201.743 1237.83 202.629V208.771Z" fill="#38355E"/>
</svg>
