<svg width="1494" height="309" viewBox="0 0 1494 309" fill="none" xmlns="http://www.w3.org/2000/svg">
<path d="M70.2393 224.219C45.3997 237.116 21.6767 255.697 38.3603 271.951C39.8369 273.389 43.8991 276.469 50.0634 277.219C57.7688 278.155 66.6116 276.408 73.134 268.927C78.3519 262.943 81.0606 245.092 81.7628 236.915C85.9677 248.581 98.7394 265.865 113.239 270.365C129.349 275.365 139.594 266.085 140.739 259.865C140.987 254.445 134.956 238.974 122.085 229.228C107.739 218.365 96.7394 215.865 87.6134 213.876C86.1478 213.557 99.4408 204.291 100.566 171.917C100.187 155.714 97.9588 136.654 85.7393 131.365C75.7599 127.047 61.0833 143.957 57.7338 153.011C55.7529 158.366 54.3828 165.661 56.4611 173.781C58.7773 182.83 66.9165 201.592 68.7498 203.859C53.262 187.628 40.2394 184.865 34.2394 184.865C28.2394 184.865 19.8091 188.219 18.7393 189.219C17.2491 190.612 5.23951 199.218 10.2394 211.219C14.4059 221.219 30.2393 225.362 36.7393 226.219C43.1393 227.019 52.4059 226.552 56.2393 226.219L70.2393 224.219Z" fill="#FF3EA3"/>
<path d="M20 3.37758C35.3333 -4.12242 82.5 0.0678959 109.5 24.0679C128 44.0679 141.5 60.0679 159.5 112.068L182.5 174.878C211 107.068 217 85.5679 276 15.3776C269.5 72.5 283.792 160 287 178C296 228.5 321 302.878 387.5 302.878C370.333 309.378 334.5 311.758 313 298.568C281.783 279.416 270 252.878 263 231.878C251.4 208.83 241.667 122.005 237.5 81.3777C218 102.878 185.014 168.878 169 257.878C148.5 212.878 110 101.878 93.5 68.0679C56.654 -7.4321 26 3.37758 20 3.37758Z" fill="black"/>
<path d="M20 3.37758C35.3333 -4.12242 82.5 0.0678959 109.5 24.0679C128 44.0679 141.5 60.0679 159.5 112.068L182.5 174.878C211 107.068 217 85.5679 276 15.3776C269.5 72.5 283.792 160 287 178C296 228.5 321 302.878 387.5 302.878C370.333 309.378 334.5 311.758 313 298.568C281.783 279.416 270 252.878 263 231.878C251.4 208.83 241.667 122.005 237.5 81.3777C218 102.878 185.014 168.878 169 257.878C148.5 212.878 110 101.878 93.5 68.0679C56.654 -7.4321 26 3.37758 20 3.37758Z" fill="black" fill-opacity="0.2"/>
<path d="M440.6 167V95.88L439.2 84.68H460.48L492.12 140.68L524.88 84.68H543.78V167H525.3V114.78H523.76L518.3 126.96L500.66 158.6H483.72L466.08 126.96L460.48 114.78H459.08V167H440.6ZM567.612 167L608.632 84.68H636.212L677.092 167H655.532L647.272 149.22H597.152L588.052 167H567.612ZM602.192 135.5H642.092L622.912 97.28H621.512L602.192 135.5ZM788.703 168.4C784.13 168.4 780.163 167.467 776.803 165.6C773.443 163.733 770.13 161.213 766.863 158.04C763.317 154.307 759.023 150.013 753.983 145.16C751.65 142.733 749.27 140.727 746.843 139.14C744.417 137.553 741.663 136.34 738.583 135.5C735.597 134.66 731.863 134.24 727.383 134.24H720.803V167H702.323V95.88L700.923 84.68H720.803V120.52H728.643C730.51 120.52 732.05 120.287 733.263 119.82C734.477 119.353 735.597 118.607 736.623 117.58C739.237 114.967 742.223 111.7 745.583 107.78C748.943 103.86 752.21 99.8467 755.383 95.74C758.65 91.54 761.45 87.8533 763.783 84.68H786.463L780.723 93.08C778.11 95.7867 775.31 98.7267 772.323 101.9C769.337 105.073 766.397 108.2 763.503 111.28C760.61 114.267 757.997 116.927 755.663 119.26C753.33 121.5 751.603 123.133 750.483 124.16C753.003 125 755.29 126.073 757.343 127.38C759.49 128.687 762.103 130.6 765.183 133.12C767.517 134.987 769.757 136.9 771.903 138.86C774.143 140.82 776.71 143.153 779.603 145.86C782.87 148.847 785.95 151.04 788.843 152.44C791.737 153.84 794.163 154.727 796.123 155.1C798.177 155.473 799.483 155.66 800.043 155.66L797.243 167C796.963 167.28 796.123 167.56 794.723 167.84C793.323 168.213 791.317 168.4 788.703 168.4ZM825.223 167V84.68H912.303V98.12H843.703V117.44H896.063V131.3H843.703V153.56H912.863L918.463 165.46C918.463 165.833 917.203 166.207 914.683 166.58C912.163 166.86 907.823 167 901.663 167H825.223ZM1055.95 167C1049.42 167 1044.29 166.067 1040.55 164.2C1036.82 162.333 1034.16 159.533 1032.57 155.8C1031.08 152.067 1030.33 147.447 1030.33 141.94V109.6C1030.33 104.187 1031.08 99.66 1032.57 96.02C1034.07 92.2867 1036.68 89.4867 1040.41 87.62C1044.15 85.66 1049.33 84.68 1055.95 84.68H1096.83C1103.37 84.68 1108.45 85.66 1112.09 87.62C1115.83 89.4867 1118.44 92.2867 1119.93 96.02C1121.52 99.66 1122.31 104.187 1122.31 109.6V141.94C1122.31 150.153 1120.49 156.407 1116.85 160.7C1113.21 164.9 1106.54 167 1096.83 167H1055.95ZM1060.01 153.56H1092.91C1096.37 153.56 1099.03 152.673 1100.89 150.9C1102.85 149.127 1103.83 146.7 1103.83 143.62V107.92C1103.83 105.213 1102.85 102.927 1100.89 101.06C1098.93 99.1 1096.27 98.12 1092.91 98.12H1060.01C1056.65 98.12 1053.95 99.0067 1051.89 100.78C1049.84 102.553 1048.81 104.933 1048.81 107.92V143.62C1048.81 146.793 1049.79 149.267 1051.75 151.04C1053.81 152.72 1056.56 153.56 1060.01 153.56ZM1182.42 167L1143.36 84.82H1162.96L1189.28 141.52L1193.06 151.6H1194.32L1197.96 141.52L1224.56 84.82H1243.6L1241.36 93.22L1204.82 167H1182.42ZM1268.85 167V84.68H1355.93V98.12H1287.33V117.44H1339.69V131.3H1287.33V153.56H1356.49L1362.09 165.46C1362.09 165.833 1360.83 166.207 1358.31 166.58C1355.79 166.86 1351.45 167 1345.29 167H1268.85ZM1478.1 168.4C1474.36 168.4 1470.68 167.84 1467.04 166.72C1463.49 165.507 1459.43 162.613 1454.86 158.04L1444.78 147.96C1440.67 143.76 1436.14 140.68 1431.2 138.72C1426.34 136.76 1420.23 135.78 1412.86 135.78H1408.52V167H1390.04V95.88L1388.64 84.54H1450.66C1456.63 84.54 1461.3 85.3333 1464.66 86.92C1468.11 88.5067 1470.63 90.6067 1472.22 93.22C1473.9 95.74 1474.97 98.4467 1475.44 101.34C1475.9 104.233 1476.14 106.987 1476.14 109.6V112.26C1476.14 114.313 1475.86 116.6 1475.3 119.12C1474.74 121.64 1473.66 124.113 1472.08 126.54C1470.49 128.967 1468.2 131.02 1465.22 132.7C1462.32 134.38 1458.5 135.36 1453.74 135.64C1454.95 136.293 1456.49 137.32 1458.36 138.72C1460.22 140.027 1462.14 141.473 1464.1 143.06C1466.15 144.647 1468.02 146.093 1469.7 147.4C1471.38 148.707 1472.68 149.64 1473.62 150.2C1476.98 152.16 1479.96 153.513 1482.58 154.26C1485.19 155.007 1487.34 155.427 1489.02 155.52C1490.7 155.613 1491.68 155.66 1491.96 155.66L1489.16 167C1488.32 167.28 1486.92 167.56 1484.96 167.84C1483 168.213 1480.71 168.4 1478.1 168.4ZM1429.52 123.04C1433.06 123.04 1436.24 122.993 1439.04 122.9C1441.84 122.713 1444.36 122.527 1446.6 122.34C1450.7 121.873 1453.55 120.753 1455.14 118.98C1456.82 117.113 1457.66 114.733 1457.66 111.84V108.62C1457.66 105.633 1456.86 103.113 1455.28 101.06C1453.69 99.0067 1450.84 97.98 1446.74 97.98H1408.52V122.34C1412.62 122.62 1416.4 122.807 1419.86 122.9C1423.31 122.993 1426.53 123.04 1429.52 123.04Z" fill="black"/>
</svg>
