<svg width="1201" height="313" viewBox="0 0 1201 313" fill="none" xmlns="http://www.w3.org/2000/svg">
<path d="M70.2393 224.219C45.3997 237.116 21.6767 255.697 38.3603 271.951C39.8369 273.389 43.8991 276.469 50.0634 277.219C57.7688 278.155 66.6116 276.408 73.134 268.927C78.3519 262.943 81.0606 245.092 81.7628 236.915C85.9677 248.581 98.7394 265.865 113.239 270.365C129.349 275.365 139.594 266.085 140.739 259.865C140.987 254.445 134.956 238.974 122.085 229.228C107.739 218.365 96.7394 215.865 87.6134 213.876C86.1478 213.557 99.4408 204.291 100.566 171.917C100.187 155.714 97.9588 136.654 85.7393 131.365C75.7599 127.047 61.0833 143.957 57.7338 153.011C55.7529 158.366 54.3828 165.661 56.4611 173.781C58.7773 182.83 66.9165 201.592 68.7498 203.859C53.262 187.628 40.2394 184.865 34.2394 184.865C28.2394 184.865 19.8091 188.219 18.7393 189.219C17.2491 190.612 5.23951 199.218 10.2394 211.219C14.4059 221.219 30.2393 225.362 36.7393 226.219C43.1393 227.019 52.4059 226.552 56.2393 226.219L70.2393 224.219Z" fill="#FF3EA3"/>
<path d="M20 3.37758C35.3333 -4.12242 82.5 0.0678959 109.5 24.0679C128 44.0679 141.5 60.0679 159.5 112.068L182.5 174.878C211 107.068 217 85.5679 276 15.3776C269.5 72.5 283.792 160 287 178C296 228.5 321 302.878 387.5 302.878C370.333 309.378 334.5 311.758 313 298.568C281.783 279.416 270 252.878 263 231.878C251.4 208.83 241.667 122.005 237.5 81.3777C218 102.878 185.014 168.878 169 257.878C148.5 212.878 110 101.878 93.5 68.0679C56.654 -7.4321 26 3.37758 20 3.37758Z" fill="#38355E"/>
<path d="M462.889 223.674L462.64 239.611C462.64 249.517 463.553 256.268 465.379 259.865C466.486 262.023 467.786 263.684 469.28 264.846L473.182 268H449.109L446.536 258.371C440.283 265.897 431.373 269.66 419.808 269.66C413.222 269.66 407.91 267.447 403.87 263.02C400.328 259.035 398.558 254.331 398.558 248.908C398.558 243.485 399.83 238.754 402.376 234.714C404.977 230.674 408.38 227.326 412.586 224.67C420.887 219.523 431.318 216.84 443.88 216.618V215.705C443.88 202.258 441.805 194.372 437.654 192.048C436.16 191.218 434.223 190.803 431.844 190.803C429.52 190.803 427.195 191.577 424.871 193.127C422.547 194.676 420.444 196.669 418.562 199.104C414.799 204.029 412.116 209.839 410.511 216.535C405.586 213.602 403.123 207.985 403.123 199.685C403.123 196.309 403.566 192.518 404.451 188.312C406.554 188.312 408.546 188.008 410.428 187.399L416.819 185.407C423.073 183.47 429.188 182.502 435.164 182.502C441.141 182.502 445.9 183.387 449.441 185.158C453.038 186.929 455.833 189.558 457.825 193.044C461.201 198.965 462.889 209.175 462.889 223.674ZM416.487 250.568C416.487 253.999 417.262 256.656 418.812 258.537C420.416 260.419 422.409 261.359 424.788 261.359C427.168 261.359 429.464 260.751 431.678 259.533C433.891 258.26 435.883 256.545 437.654 254.387C441.805 249.462 443.88 243.679 443.88 237.038V224.753C436.132 225.472 429.741 228.046 424.705 232.473C419.227 237.232 416.487 243.264 416.487 250.568ZM520.898 232.805C520.898 248.853 521.977 260.585 524.135 268H499.648C501.197 262.632 502.166 256.296 502.553 248.991C503.383 231.338 503.798 217.642 503.798 207.902C503.798 198.163 503.771 191.633 503.715 188.312C503.66 184.937 503.605 181.561 503.549 178.186C503.217 166.288 502.636 158.734 501.806 155.524C501.031 152.259 500.284 149.908 499.565 148.469C498.513 146.145 496.826 143.654 494.501 140.998H524.799C523.25 146.587 522.337 151.872 522.06 156.853L521.479 168.889C521.092 178.02 520.898 184.965 520.898 189.724C520.898 194.483 520.926 197.692 520.981 199.353C521.092 201.013 521.313 202.368 521.645 203.42C522.309 205.633 523.969 206.685 526.625 206.574C529.337 206.464 531.772 205.91 533.93 204.914C536.088 203.863 537.859 202.535 539.243 200.93C542.01 197.831 543.393 194.538 543.393 191.052C543.393 187.565 542.978 185.269 542.148 184.162H566.137C565.473 185.49 564.864 186.846 564.311 188.229C563.813 189.558 563.26 190.913 562.651 192.297C558.722 201.04 552.524 207.377 544.057 211.306C544.61 222.761 548.373 234.243 555.346 245.754C561.931 256.434 569.181 263.85 577.094 268H549.287C543.753 265.344 539.27 256.434 535.839 241.271C534.677 236.125 533.902 231.172 533.515 226.413C533.128 221.654 532.519 218.555 531.689 217.116C530.859 215.622 529.365 214.875 527.206 214.875C523.001 214.875 520.898 218.804 520.898 226.662V232.805ZM651.954 239.777C653.946 241.105 654.942 243.43 654.942 246.75C654.942 250.015 654.499 252.893 653.614 255.383C652.729 257.873 651.179 260.197 648.966 262.355C643.985 267.225 636.404 269.66 626.221 269.66C614.379 269.66 605.359 265.288 599.161 256.545C593.682 248.742 590.943 238.2 590.943 224.919C590.943 211.527 594.651 201.013 602.066 193.376C609.094 186.127 618.612 182.502 630.621 182.502C638.977 182.502 645.507 184.937 650.211 189.807C653.918 193.68 655.772 198.163 655.772 203.254C655.772 208.29 654.776 212.855 652.784 216.95C650.847 220.99 647.97 224.476 644.151 227.409C636.293 233.496 625.308 236.706 611.197 237.038C612.359 248.161 615.846 255.604 621.656 259.367C623.759 260.695 626.554 261.359 630.04 261.359C633.526 261.359 637.234 259.533 641.163 255.881C645.092 252.229 648.689 246.861 651.954 239.777ZM610.699 229.152C628.186 227.99 636.929 219.523 636.929 203.752C636.929 197.831 635.159 193.846 631.617 191.799C630.4 191.135 628.795 190.803 626.803 190.803C624.81 190.803 622.79 191.411 620.743 192.629C618.751 193.846 617.008 195.839 615.513 198.605C612.304 204.637 610.699 213.962 610.699 226.579V229.152ZM871.968 261.359C882.593 261.359 889.455 248.41 892.554 222.512C893.605 213.768 894.131 203.475 894.131 191.633C894.131 162.303 886.688 147.639 871.802 147.639C856.916 147.639 849.473 162.303 849.473 191.633C849.473 226.219 853.927 248.05 862.837 257.126C865.604 259.948 868.647 261.359 871.968 261.359ZM871.802 269.66C857.082 269.66 845.986 262.743 838.516 248.908C831.322 235.572 827.725 216.48 827.725 191.633C827.725 165.79 835.666 149.52 851.548 142.824C857.137 140.5 863.888 139.338 871.802 139.338C894.491 139.338 908.353 149.41 913.389 169.553C915.049 176.027 915.879 184.356 915.879 194.538C915.879 204.72 914.993 214.654 913.223 224.338C911.452 233.967 908.74 242.157 905.088 248.908C897.617 262.743 886.522 269.66 871.802 269.66ZM968.991 184.162C967.995 186.597 967.496 189.281 967.496 192.214C967.496 195.091 967.718 197.665 968.161 199.934C968.603 202.147 969.212 204.748 969.987 207.736L978.952 239.611L982.106 249.821C985.371 240.026 987.529 233.413 988.58 229.982L991.569 219.855C994.834 208.732 996.466 201.843 996.466 199.187C996.466 196.53 996.328 194.593 996.051 193.376C995.83 192.103 995.498 190.969 995.055 189.973C994.502 188.479 993.423 186.542 991.818 184.162H1022.03C1017.94 189.807 1015.2 194.04 1013.81 196.862L1010.74 203.171C1010.25 204.167 1009.55 205.606 1008.67 207.487C997.822 232.224 992.399 248.798 992.399 257.209C992.399 261.027 993.118 264.624 994.557 268H964.674C966.002 265.897 966.777 263.933 966.998 262.106C967.275 260.225 967.413 258.316 967.413 256.379C967.413 254.387 966.915 251.537 965.919 247.829C964.923 244.121 963.623 239.916 962.018 235.212C960.413 230.508 958.559 225.555 956.456 220.354C954.409 215.096 952.306 210.088 950.148 205.329C945.278 194.649 941.349 187.593 938.361 184.162H968.991ZM1106.44 239.777C1108.43 241.105 1109.43 243.43 1109.43 246.75C1109.43 250.015 1108.98 252.893 1108.1 255.383C1107.21 257.873 1105.66 260.197 1103.45 262.355C1098.47 267.225 1090.89 269.66 1080.71 269.66C1068.86 269.66 1059.84 265.288 1053.65 256.545C1048.17 248.742 1045.43 238.2 1045.43 224.919C1045.43 211.527 1049.14 201.013 1056.55 193.376C1063.58 186.127 1073.1 182.502 1085.11 182.502C1093.46 182.502 1099.99 184.937 1104.7 189.807C1108.4 193.68 1110.26 198.163 1110.26 203.254C1110.26 208.29 1109.26 212.855 1107.27 216.95C1105.33 220.99 1102.45 224.476 1098.64 227.409C1090.78 233.496 1079.79 236.706 1065.68 237.038C1066.84 248.161 1070.33 255.604 1076.14 259.367C1078.24 260.695 1081.04 261.359 1084.52 261.359C1088.01 261.359 1091.72 259.533 1095.65 255.881C1099.58 252.229 1103.17 246.861 1106.44 239.777ZM1065.18 229.152C1082.67 227.99 1091.41 219.523 1091.41 203.752C1091.41 197.831 1089.64 193.846 1086.1 191.799C1084.88 191.135 1083.28 190.803 1081.29 190.803C1079.29 190.803 1077.27 191.411 1075.23 192.629C1073.24 193.846 1071.49 195.839 1070 198.605C1066.79 204.637 1065.18 213.962 1065.18 226.579V229.152ZM1143.28 268C1145.83 259.257 1147.1 244.232 1147.1 222.927C1147.1 207.764 1145.88 197.416 1143.45 191.882C1142.45 189.613 1140.68 187.04 1138.13 184.162H1167.6C1166.61 187.648 1165.8 192.435 1165.19 198.522C1170.4 191.993 1177.65 187.372 1186.94 184.66C1190.93 183.498 1193.83 181.672 1195.66 179.182C1197.48 183.553 1198.4 187.316 1198.4 190.471C1198.4 193.625 1198.23 196.558 1197.9 199.27C1197.57 201.926 1197.07 204.527 1196.41 207.072C1194.97 212.551 1193.06 216.812 1190.68 219.855C1188.63 209.064 1185.45 202.756 1181.13 200.93C1176.15 198.771 1171.28 201.704 1166.52 209.729C1165.53 211.389 1164.7 213.16 1164.03 215.041C1163.98 216.314 1163.95 217.614 1163.95 218.942C1163.95 220.271 1163.95 221.599 1163.95 222.927C1163.95 244.232 1165.22 259.257 1167.77 268H1143.28Z" fill="#38355E"/>
</svg>
