<svg width="294" height="294" viewBox="0 0 294 294" fill="none" xmlns="http://www.w3.org/2000/svg">
<path opacity="0.04" d="M71.861 17.4367C61.846 31.4573 73.1737 54.4779 58.4219 64.9465C44.0622 75.137 26.7336 58.0035 13.2095 66.7631C-6.85298 79.7575 -3.85014 140.215 24.8841 178.061C33.5254 189.442 40.7989 193.912 43.9064 206.714C50.5791 234.203 25.9426 250.254 30.4556 263.862C40.6173 294.503 201.566 321.818 267.219 230.744C297.882 188.208 303.054 126.375 276.555 79.0929C228.671 -6.34615 94.3329 -14.0228 71.861 17.4367Z" fill="url(#paint0_linear_13871_7966)"/>
<path d="M144.964 198.571C129.812 196.06 114.624 129.886 141.654 102.507C152.933 91.0817 165.863 92.1855 174.943 76.4586C183.045 62.4253 176.33 55.3449 182.561 39.0918C191.322 16.2382 217.994 -4.70609 236.859 1.56416C246.324 4.71022 255.355 15.2161 255.922 27.4066C256.376 37.1702 246.676 44.8354 248.95 47.2996C250.818 49.3236 256.691 44.086 260.376 46.1282C265.809 49.1399 265.893 67.6588 257.338 81.2688C242.694 104.568 212.049 98.6628 206.737 116.624C203.351 128.072 214.642 134.393 209.978 145.925C205.874 156.072 195.262 155.808 179.341 165.951C154.403 181.84 153.087 199.917 144.964 198.571Z" fill="url(#paint1_linear_13871_7966)"/>
<mask id="mask0_13871_7966" style="mask-type:luminance" maskUnits="userSpaceOnUse" x="126" y="0" width="139" height="199">
<path d="M144.979 198.573C129.827 196.062 114.64 129.888 141.669 102.509C152.948 91.0837 165.879 92.1875 174.959 76.4605C183.061 62.4273 176.346 55.3469 182.577 39.0938C191.338 16.2401 218.01 -4.70413 236.874 1.56611C246.34 4.71217 255.37 15.2181 255.937 27.4086C256.392 37.1721 246.692 44.8373 248.966 47.3016C250.834 49.3256 256.707 44.088 260.391 46.1301C265.825 49.1419 265.908 67.6607 257.354 81.2708C242.71 104.57 212.064 98.6648 206.753 116.626C203.367 128.074 214.658 134.395 209.994 145.927C205.89 156.074 195.277 155.81 179.357 165.953C154.419 181.842 153.102 199.919 144.979 198.573Z" fill="white"/>
</mask>
<g mask="url(#mask0_13871_7966)">
<g opacity="0.5">
<path d="M145.837 212.564C145.517 212.585 145.204 212.401 145.077 212.087C144.965 211.812 145.025 211.509 145.207 211.298C145.312 210.846 145.338 209.314 145.369 207.556C145.539 197.666 145.993 171.394 160.026 132.559C177.675 83.7169 209.97 33.3517 256.013 -17.1377C256.299 -17.4505 256.785 -17.4728 257.097 -17.1876C257.41 -16.9021 257.433 -16.4168 257.147 -16.1037C207.679 38.1413 148.397 120.982 146.903 207.583C146.835 211.5 146.823 212.206 146.076 212.509C145.998 212.541 145.917 212.559 145.837 212.564Z" fill="white"/>
<path d="M185.594 82.319C185.19 82.3452 184.831 82.0501 184.784 81.6429C184.734 81.222 185.035 80.8409 185.456 80.7914C220.094 76.7218 241.716 69.4638 253.755 64.0917C266.791 58.2748 271.705 53.3579 271.753 53.3089C272.049 53.0069 272.534 53.0018 272.838 53.2981C273.14 53.5941 273.146 54.079 272.85 54.3818C272.648 54.5882 267.765 59.5009 254.524 65.4289C242.377 70.8674 220.565 78.2115 185.635 82.3153C185.622 82.3169 185.608 82.3182 185.594 82.319Z" fill="white"/>
<path d="M205.314 48.7903C205.156 48.8006 204.994 48.7625 204.851 48.6703C196.82 43.5188 193.209 31.3333 194.119 12.4525C194.789 -1.46468 197.805 -14.0711 197.835 -14.1967C197.934 -14.6092 198.349 -14.8623 198.761 -14.7624C199.173 -14.6629 199.426 -14.2484 199.326 -13.8364C199.207 -13.3417 187.586 35.7726 205.679 47.379C206.036 47.6077 206.139 48.0823 205.911 48.439C205.774 48.6522 205.549 48.775 205.314 48.7903Z" fill="white"/>
<path d="M157.801 142.304C157.578 142.319 157.35 142.236 157.187 142.059C146.956 130.977 144.374 115.026 144.009 103.595C143.615 91.261 145.65 81.3812 145.671 81.2828C145.758 80.8684 146.164 80.6026 146.579 80.6892C146.994 80.7759 147.259 81.1825 147.172 81.5973C147.152 81.6941 145.151 91.4237 145.543 103.581C145.904 114.739 148.412 130.292 158.314 141.018C158.602 141.33 158.583 141.815 158.271 142.102C158.137 142.226 157.97 142.293 157.801 142.304Z" fill="white"/>
</g>
</g>
<path d="M147.458 214.011C147.99 183.231 153.919 160.61 158.998 146.121C162.985 134.748 169.701 119.109 178.468 118.91C182.67 118.815 184.268 122.336 188.697 122.044C197.059 121.494 199.77 108.389 206.842 99.9946C218.94 85.6342 249.109 78.7542 266.5 92.7192C287.441 109.536 281.135 149.578 265.772 158.925C256.669 164.463 243.663 159.665 241.764 164.745C239.853 169.859 252.654 175.716 251.71 184.387C250.732 193.363 235.784 198.361 234.88 198.653C216.815 204.48 206.418 191.967 187.926 192.391C177.895 192.622 163.981 196.694 147.458 214.011Z" fill="url(#paint2_linear_13871_7966)"/>
<mask id="mask1_13871_7966" style="mask-type:luminance" maskUnits="userSpaceOnUse" x="147" y="85" width="133" height="130">
<path d="M147.466 214.013C147.998 183.233 153.927 160.611 159.006 146.123C162.993 134.75 169.709 119.111 178.476 118.912C182.677 118.817 184.276 122.338 188.705 122.046C197.066 121.496 199.778 108.391 206.85 99.9965C218.948 85.6362 249.117 78.7562 266.508 92.7212C287.449 109.538 281.143 149.58 265.78 158.927C256.677 164.465 243.67 159.666 241.771 164.747C239.861 169.86 252.662 175.718 251.717 184.389C250.739 193.365 235.792 198.363 234.887 198.655C216.823 204.482 206.426 191.969 187.934 192.393C177.903 192.624 163.989 196.696 147.466 214.013Z" fill="white"/>
</mask>
<g mask="url(#mask1_13871_7966)">
<path d="M138.849 237.087L139.302 237.206C157.629 167.353 215.414 115.943 293.877 99.684L293.782 99.2246C256.596 106.93 222.785 123.189 196.002 146.245C167.845 170.483 148.082 201.896 138.849 237.087Z" fill="#FCFDFE"/>
<path d="M140.06 130.104C149.77 147.305 156.075 178.057 154.114 198.656L154.581 198.701C156.549 178.021 150.218 147.145 140.468 129.873L140.06 130.104Z" fill="#FCFDFE"/>
<path d="M142.606 223.415L143.009 223.655C148.515 214.415 158.481 208.314 172.628 205.521C183.002 203.473 195.342 203.218 209.304 204.763L209.356 204.297C195.346 202.746 182.958 203.003 172.538 205.061C158.254 207.881 148.183 214.056 142.606 223.415Z" fill="#FCFDFE"/>
<path d="M199.935 143.119L200.325 143.379C211.599 126.497 211.258 105.152 208.986 90.2188L208.523 90.2893C210.781 105.141 211.125 126.362 199.935 143.119Z" fill="#FCFDFE"/>
<path d="M238.95 117.883L239.075 118.335C261.121 112.252 283.4 121.191 294.718 127.061L294.934 126.645C283.554 120.743 261.15 111.757 238.95 117.883Z" fill="#FCFDFE"/>
</g>
<path d="M156.095 84.6243C155.097 84.6243 154.245 83.8098 154.149 82.7219C152.435 63.409 146.573 45.0593 137.641 31.0523C129.729 18.6433 120.309 11.2384 112.439 11.2384C112.43 11.2384 112.422 11.2384 112.413 11.2384C83.7466 11.2984 77.7503 81.9881 77.6932 82.7023C77.6005 83.8591 76.6569 84.7157 75.5756 84.6165C74.4989 84.517 73.7009 83.4988 73.7934 82.3425C74.039 79.2701 80.1766 7.10191 112.405 7.03418C112.417 7.03418 112.428 7.03418 112.44 7.03418C121.739 7.03418 132.099 14.9199 140.871 28.6765C150.17 43.2614 156.27 62.3131 158.045 82.3224C158.148 83.4782 157.359 84.5045 156.283 84.6149C156.22 84.6212 156.157 84.6243 156.095 84.6243Z" fill="url(#paint3_linear_13871_7966)"/>
<path d="M36.6709 230.108L74.4065 250.628L97.2705 175.269L59.5971 74.2393L48.9144 77.0525L32.7057 222.15C32.3388 225.434 33.9231 228.614 36.6709 230.108Z" fill="url(#paint4_linear_13871_7966)"/>
<path opacity="0.3" d="M97.2708 175.269L59.5974 74.2393L53.2964 75.8987C52.4227 89.3876 52.8066 100.489 53.4001 108.572C55.9255 142.97 64.3129 152.542 60.2498 176.538C56.8714 196.491 49.4934 199.199 50.1383 212.623C50.8409 227.243 60.3347 239.486 71.6225 249.114L74.407 250.628L97.2708 175.269Z" fill="url(#paint5_linear_13871_7966)"/>
<path d="M59.5986 74.2393L201.705 81.9759L246.865 235.703L74.4081 250.628L59.5986 74.2393Z" fill="url(#paint6_linear_13871_7966)"/>
<g opacity="0.3">
<path d="M201.707 81.9769L127.598 77.9424C126.347 79.9087 124.691 83.1118 124.382 87.1983C122.558 111.367 172.429 119.191 176.897 148.858C180.299 171.444 159.367 197.505 140.691 209.116C121.014 221.349 107.682 215.154 94.3739 228.735C88.5266 234.702 84.9661 242.164 82.8486 249.899L246.868 235.704L201.707 81.9769Z" fill="url(#paint7_linear_13871_7966)"/>
</g>
<path d="M103.179 88.0782C102.291 88.0782 101.487 87.4245 101.276 86.4555C100.876 84.6245 91.6314 41.3599 104.666 20.1271C108.402 14.0417 113.621 10.3262 120.179 9.08366C153.874 2.70675 174.62 80.4379 175.487 83.75C175.779 84.8677 175.173 86.0281 174.132 86.3421C173.09 86.6572 172.011 86.0044 171.718 84.8873C171.515 84.1133 151.094 7.49022 120.859 13.2242C115.326 14.2722 111.098 17.2872 107.934 22.4411C95.8174 42.1784 104.992 85.0648 105.086 85.4959C105.333 86.6259 104.68 87.7571 103.628 88.0223C103.478 88.0602 103.327 88.0782 103.179 88.0782Z" fill="url(#paint8_linear_13871_7966)"/>
<path d="M103.193 94.2698C106.214 94.2698 108.663 91.6396 108.663 88.3951C108.663 85.1507 106.214 82.5205 103.193 82.5205C100.172 82.5205 97.7236 85.1507 97.7236 88.3951C97.7236 91.6396 100.172 94.2698 103.193 94.2698Z" fill="url(#paint9_linear_13871_7966)"/>
<path d="M174.529 93.7268C177.55 93.7268 179.999 91.0966 179.999 87.8522C179.999 84.6077 177.55 81.9775 174.529 81.9775C171.508 81.9775 169.06 84.6077 169.06 87.8522C169.06 91.0966 171.508 93.7268 174.529 93.7268Z" fill="url(#paint10_linear_13871_7966)"/>
<path d="M212.585 155.948L168.466 112.927C167.536 112.021 166.204 111.767 165.04 112.275L141.495 122.554C139.511 123.42 138.827 126.069 140.113 127.909L178.539 182.927C179.601 184.448 181.598 184.783 183.041 183.683L212.279 161.407C213.981 160.11 214.13 157.455 212.585 155.948ZM162.134 128.051C160.647 129.125 158.304 128.177 156.901 125.935C155.497 123.692 155.564 121.005 157.051 119.931C158.538 118.858 160.881 119.805 162.284 122.047C163.688 124.29 163.621 126.978 162.134 128.051Z" fill="#D8DEE8"/>
<path d="M212.585 155.362L168.466 112.341C167.536 111.435 166.204 111.181 165.04 111.689L141.495 121.968C139.511 122.835 138.827 125.483 140.113 127.323L178.539 182.341C179.601 183.862 181.598 184.197 183.041 183.097L212.279 160.821C213.981 159.524 214.13 156.869 212.585 155.362ZM162.134 127.465C160.647 128.539 158.304 127.591 156.901 125.349C155.497 123.107 155.564 120.418 157.051 119.345C158.538 118.272 160.881 119.219 162.284 121.461C163.688 123.704 163.621 126.392 162.134 127.465Z" fill="#F4F7FA"/>
<path d="M152.948 116.897C152.807 116.897 152.673 116.814 152.615 116.676C151.086 113.073 149.025 109.961 146.488 107.426C139.535 100.48 130.558 99.3874 121.875 98.3311C113.236 97.28 105.076 96.2874 100.201 89.4121C98.9672 87.6718 97.0505 84.5264 98.0787 83.0128C98.4912 82.4057 99.3148 82.1263 100.525 82.1842C100.724 82.1935 100.878 82.3631 100.869 82.5628C100.86 82.7625 100.692 82.92 100.49 82.9072C99.8425 82.8769 99.0028 82.9407 98.6774 83.4196C98.1312 84.2237 98.9609 86.4117 100.792 88.9934C105.481 95.6073 113.487 96.5812 121.963 97.6124C130.767 98.6835 139.87 99.7909 146.999 106.913C149.603 109.514 151.716 112.704 153.281 116.393C153.359 116.577 153.273 116.79 153.089 116.868C153.043 116.887 152.995 116.897 152.948 116.897Z" fill="#26264F"/>
<path d="M156.728 124.178C156.635 124.178 156.542 124.142 156.472 124.071C156.331 123.93 156.331 123.7 156.473 123.559C156.503 123.529 159.524 120.472 159.509 116.394C159.5 113.89 158.361 111.505 156.123 109.307C151.376 104.647 138.783 99.2485 127.673 94.4859C120.891 91.579 114.486 88.8333 110.28 86.4659C109.326 85.9288 108.317 85.4191 107.28 84.9507C107.098 84.8684 107.017 84.654 107.1 84.4718C107.182 84.2897 107.396 84.2085 107.579 84.2911C108.634 84.7683 109.662 85.2878 110.635 85.8352C114.807 88.1834 121.195 90.9217 127.958 93.8207C139.127 98.6084 151.787 104.035 156.63 108.791C159.013 111.132 160.226 113.691 160.233 116.399C160.246 120.782 157.116 123.941 156.983 124.073C156.912 124.143 156.82 124.178 156.728 124.178Z" fill="#26264F"/>
<path d="M212.584 155.362L168.465 112.341C167.535 111.435 166.203 111.181 165.039 111.689L162.942 112.604C163.491 114.604 164.311 116.854 165.564 119.151C172.081 131.101 182.773 130.586 185.244 138.879C187.433 146.229 180.089 150.172 179.121 160.486C178.637 165.639 179.741 172.494 185.655 181.105L212.278 160.821C213.98 159.524 214.129 156.869 212.584 155.362Z" fill="white"/>
<path d="M178.897 171.126C178.306 171.126 177.729 170.804 177.4 170.221C176.898 169.335 177.162 168.179 177.987 167.64L199.234 153.787C200.06 153.249 201.136 153.532 201.637 154.418C202.138 155.305 201.875 156.461 201.049 157L179.803 170.853C179.519 171.037 179.206 171.126 178.897 171.126Z" fill="#D8DEE8"/>
<path d="M165.942 252.157L220.421 255.988V176.196L165.942 180.028V252.157Z" fill="url(#paint11_linear_13871_7966)"/>
<path d="M220.419 255.988L261.338 250.528V181.29L220.419 176.196V255.988Z" fill="url(#paint12_linear_13871_7966)"/>
<path d="M201.141 177.552V209.928H182.888V178.836L201.141 177.552Z" fill="white"/>
<g opacity="0.71">
<path d="M243.318 217.515C241.463 207.61 234.425 202.624 233.105 189.581C232.691 185.49 232.937 181.559 233.628 177.843L261.34 181.292V250.53L227.466 255.05C242.542 238.316 244.939 226.176 243.318 217.515Z" fill="white"/>
</g>
<path d="M54.3037 113.591C53.5169 113.194 52.2522 112.422 51.201 111.023C50.0753 109.526 48.8727 106.881 49.8101 105.781C50.2595 105.254 50.8735 105.466 52.1639 105.246C54.8495 104.788 55.5723 103.292 57.2994 102.678C61.0925 101.329 66.7931 105.277 66.5005 107.279C66.3785 108.112 65.2174 108.609 63.0768 109.526C60.8831 110.465 59.9986 110.348 58.1552 111.131C57.1954 111.538 55.8147 112.258 54.3037 113.591Z" fill="url(#paint13_linear_13871_7966)"/>
<path d="M18.7135 231.977L18.3446 231.337C18.3446 231.337 17.6825 230.94 17.3694 231.761C17.0562 232.581 15.2791 236.867 15.1846 238.812C15.6507 239.975 16.97 238.99 17.2421 238.199C17.5143 237.408 18.4571 234.475 18.4571 234.475L18.7135 231.977Z" fill="url(#paint14_linear_13871_7966)"/>
<path d="M22.9089 235.034C22.3578 235.026 21.8099 235.03 21.2553 235.005C20.2444 234.96 19.2281 234.887 18.208 234.785C18.3785 233.724 18.5489 232.663 18.7194 231.602C19.2398 231.403 19.7481 231.204 20.2453 231.004C20.4992 230.902 20.7424 230.799 20.9904 230.696C21.2244 230.6 21.4632 230.503 21.6921 230.406C22.0286 230.263 22.3536 230.12 22.679 229.977C22.8083 229.92 22.9426 229.863 23.0702 229.806C23.4521 229.635 23.823 229.464 24.1895 229.293C24.2514 229.264 24.3162 229.235 24.3774 229.206C24.7742 229.019 25.1605 228.832 25.5394 228.644C25.5669 228.63 25.596 228.617 25.6234 228.603C26.0225 228.405 26.4116 228.206 26.7914 228.007C26.7966 228.005 26.8021 228.002 26.8074 227.999C27.5801 227.594 28.3133 227.188 29.0093 226.781C37.634 221.741 40.4859 216.623 41.3646 212.599C43.837 201.278 31.7313 194.007 34.8582 181.73C37.2145 172.478 47.1603 164.556 53.2846 166.403C60.2012 168.49 61.2848 181.896 61.9518 190.146C62.7028 199.435 63.5394 209.784 57.5984 219.053C51.9729 227.831 41.81 233.232 30.1154 234.67C30.1154 234.67 30.1155 234.671 30.1155 234.672C29.8374 234.706 29.5525 234.722 29.2728 234.751C28.5947 234.823 27.9176 234.898 27.2303 234.943C26.916 234.964 26.5959 234.965 26.28 234.981C25.6099 235.013 24.9414 235.05 24.2645 235.057C23.8151 235.061 23.3604 235.04 22.9089 235.034Z" fill="url(#paint15_linear_13871_7966)"/>
<path opacity="0.25" d="M22.9089 235.034C22.3578 235.026 21.8099 235.03 21.2553 235.005C20.2444 234.96 19.2281 234.887 18.208 234.785C18.3785 233.724 18.5489 232.663 18.7194 231.602C19.2398 231.403 19.7481 231.204 20.2453 231.004C20.4992 230.902 20.7424 230.799 20.9904 230.696C21.2244 230.6 21.4632 230.503 21.6921 230.406C22.0286 230.263 22.3536 230.12 22.679 229.977C22.8083 229.92 22.9426 229.863 23.0702 229.806C23.4521 229.635 23.823 229.464 24.1895 229.293C24.2514 229.264 24.3162 229.235 24.3774 229.206C24.7742 229.019 25.1605 228.832 25.5394 228.644C25.5669 228.63 25.596 228.617 25.6234 228.603C26.0225 228.405 26.4116 228.206 26.7914 228.007C26.7966 228.005 26.8021 228.002 26.8074 227.999C27.5801 227.594 28.3133 227.188 29.0093 226.781C37.634 221.741 40.4859 216.623 41.3646 212.599C43.837 201.278 31.7313 194.007 34.8582 181.73C37.2145 172.478 47.1603 164.556 53.2846 166.403C60.2012 168.49 61.2848 181.896 61.9518 190.146C62.7028 199.435 63.5394 209.784 57.5984 219.053C51.9729 227.831 41.81 233.232 30.1154 234.67C30.1154 234.67 30.1155 234.671 30.1155 234.672C29.8374 234.706 29.5525 234.722 29.2728 234.751C28.5947 234.823 27.9176 234.898 27.2303 234.943C26.916 234.964 26.5959 234.965 26.28 234.981C25.6099 235.013 24.9414 235.05 24.2645 235.057C23.8151 235.061 23.3604 235.04 22.9089 235.034Z" fill="url(#paint16_linear_13871_7966)"/>
<path d="M79.2348 169.226C80.557 167.128 74.3917 164.033 72.3875 155.424C70.6952 148.156 74.1481 146.315 72.2644 136.584C71.2152 131.164 69.4243 128.017 67.3371 125.732C65.6168 123.849 63.3821 121.403 61.3676 121.723C55.051 122.726 47.569 151.456 60.1907 163.984C66.6762 170.421 77.64 171.756 79.2348 169.226Z" fill="url(#paint17_linear_13871_7966)"/>
<path d="M46.0696 260.19C46.3567 259.527 47.9378 261.192 49.4107 262.95C49.221 265.481 49.0312 268.012 48.8414 270.543C49.3644 270.21 50.0238 269.847 50.7675 269.675C51.6614 269.469 53.2064 269.791 53.3251 270.218C54.0576 272.855 47.481 273.431 46.7603 272.603C46.0396 271.774 46.2044 270.804 46.2044 270.804C46.8719 267.004 46.7837 264.43 46.4672 262.653C46.2448 261.405 45.9111 260.555 46.0696 260.19Z" fill="url(#paint18_linear_13871_7966)"/>
<path d="M29.2192 175.315C32.9722 169.782 36.6306 164.185 40.2981 158.594C41.0187 157.496 41.4364 156.222 41.6373 154.884C43.0936 156.04 44.4883 157.423 45.7736 159.042C46.8062 164.22 48.4012 172.004 50.5053 181.438C55.8522 205.411 58.1027 211.414 59.2368 218.955C60.9817 230.557 60.3632 247.652 48.8399 270.544C47.961 270.631 47.082 270.719 46.203 270.806C44.3508 251.225 42.2262 233.551 41.1542 224.469C40.7905 221.388 39.7169 212.143 34.7675 204.697C34.6878 204.577 27.3641 194.562 24.8371 190.561C23.9958 189.229 22.9433 187.501 21.7471 185.19C24.5847 182.208 26.8585 178.795 29.2192 175.315Z" fill="url(#paint19_linear_13871_7966)"/>
<path opacity="0.25" d="M29.2192 175.315C32.9721 169.782 36.6307 164.185 40.2981 158.594C41.0186 157.496 41.4364 156.222 41.6373 154.884C43.0936 156.04 44.4883 157.423 45.7736 159.042C47.4105 165.373 48.5773 170.788 49.3941 174.929C51.6602 186.413 51.5313 189.59 49.908 192.441C47.6765 196.362 45.1069 195.301 43.4763 198.713C40.6177 204.695 48.2725 208.782 48.2022 220.317C48.1631 226.713 45.876 228.318 46.9173 234.189C47.186 235.705 47.948 239.034 47.6113 243.608C47.4636 245.617 47.3017 245.18 47.1786 246.995C46.8281 252.166 48.0614 256.919 47.5271 260.148C47.335 261.309 46.9401 262.119 46.7867 262.413C46.3752 263.204 45.8928 263.771 45.5536 264.122C43.8751 247.266 42.1028 232.505 41.1542 224.469C40.7905 221.388 39.7169 212.143 34.7675 204.697C34.6878 204.577 27.3641 194.562 24.8371 190.561C23.9958 189.229 22.9433 187.501 21.7471 185.19C24.5847 182.208 26.8586 178.795 29.2192 175.315Z" fill="url(#paint20_linear_13871_7966)"/>
<path d="M68.0597 126.932C70.419 131.258 70.1503 135.567 69.892 137.453C69.115 143.125 65.8013 146.905 64.6889 148.334C60.9585 153.126 58.0494 162.605 62.6798 183.384C60.0818 182.967 55.8064 182.567 50.8246 183.605C38.1539 186.246 33.0957 195.655 27.0167 193.94C24.7723 193.307 21.7243 190.97 19.5988 182.243C17.7413 177.705 11.9529 161.959 17.8869 143.441C22.1312 130.197 30.2955 122.016 34.3398 118.458C37.8167 117.287 48.673 114.122 59.0024 119.124C61.5761 120.37 65.5743 122.375 68.0597 126.932Z" fill="url(#paint21_linear_13871_7966)"/>
<path d="M56.2105 153.762L65.9014 150.34C66.0806 150.282 66.2234 150.145 66.2884 149.969L67.8953 145.596C68.0613 145.144 67.6637 144.687 67.1934 144.789L58.088 146.758C57.8797 146.803 57.4156 146.938 57.2734 147.325L55.4705 152.658C55.3062 153.134 55.7318 153.915 56.2105 153.762Z" fill="url(#paint22_linear_13871_7966)"/>
<path d="M56.357 153.818L65.7218 150.823C65.901 150.765 66.0438 150.629 66.1088 150.452L67.7156 146.079C67.8817 145.628 67.4842 145.17 67.0137 145.272L57.9084 147.242C57.7 147.287 57.5302 147.437 57.4605 147.639L55.5942 153.038C55.4299 153.513 55.8783 153.972 56.357 153.818Z" fill="url(#paint23_linear_13871_7966)"/>
<path d="M52.0989 150.895L53.1467 150.398C53.1467 150.398 54.7942 149.191 55.9011 148.705C57.008 148.22 57.9041 148.335 58.5902 149.359C59.2765 150.383 58.1114 151.346 57.1116 152.192C56.5035 152.706 55.2352 152.752 54.209 152.698C53.4875 152.659 52.0439 153.159 52.0439 153.159L52.0989 150.895Z" fill="url(#paint24_linear_13871_7966)"/>
<path d="M54.0738 109.791C54.0771 110.705 54.0418 115.6 51.8669 116.403C51.3915 116.579 51.0097 116.467 48.9009 116.522C47.6988 116.553 46.7207 116.618 46.0908 116.666C46.1977 117.5 46.4078 118.619 46.8547 119.876C49.561 127.491 58.3206 132.782 61.288 130.876C62.8335 129.884 62.9526 126.907 63.0021 125.672C63.0764 123.816 62.629 122.346 62.3025 121.505C61.2161 120.716 60.1046 119.924 58.9677 119.133C58.2251 118.616 57.4865 118.11 56.7522 117.613C56.8018 116.676 56.8515 115.74 56.901 114.803C55.9586 113.132 55.0162 111.462 54.0738 109.791Z" fill="url(#paint25_linear_13871_7966)"/>
<path d="M53.126 111.597C53.126 111.597 53.1157 115.625 56.3319 116.935C59.2116 118.109 62.9887 111.348 61.8505 109.154C61.4706 108.422 60.334 107.562 59.2334 107.364C58.4595 107.224 55.2474 107.205 54.3373 109.728C54.0666 108.931 53.5276 108.413 52.9709 108.408C52.882 108.407 52.627 108.444 52.4233 108.589C51.6861 109.115 51.8958 110.345 53.126 111.597Z" fill="url(#paint26_linear_13871_7966)"/>
<path opacity="0.3" d="M17.8869 143.442C21.2076 133.08 26.9207 125.831 31.19 121.457C36.0844 124.692 41.0637 129.076 40.648 133.776C40.1749 139.125 33.0293 141.336 33.6966 144.718C34.6639 149.621 50.229 147.763 52.0455 153.159C54.1859 159.517 35.73 171.475 36.717 172.829C37.423 173.797 45.9119 166.954 55.5471 168.549C57.4162 168.858 59.0911 169.587 60.5833 170.548C60.9264 174.264 61.5933 178.51 62.6798 183.385C60.0818 182.968 55.8064 182.568 50.8246 183.606C38.1539 186.247 33.0957 195.656 27.0167 193.941C24.7723 193.308 21.7243 190.971 19.5988 182.244C17.7413 177.706 11.9529 161.96 17.8869 143.442Z" fill="url(#paint27_linear_13871_7966)"/>
<path d="M41.2282 118.823C38.2866 118.09 38.2717 117.134 34.3378 118.458C23.041 122.261 11.082 139.31 17.2626 151.348C20.7002 158.044 28.9372 164.082 38.0186 162.689C45.4112 161.555 49.7533 156.051 50.8573 154.558C51.2853 152.846 51.7131 151.134 52.1411 149.422C47.3235 152.154 43.9303 152.153 41.6563 151.562C37.7854 150.557 36.9258 147.783 30.5294 145.357C28.0374 144.411 26.5404 144.215 26.4639 143.431C26.3057 141.81 32.5709 141.269 36.5208 137.867C39.4002 135.388 42.2729 130.334 41.2282 118.823Z" fill="url(#paint28_linear_13871_7966)"/>
<path d="M184.474 273.552C184.474 276.431 186.247 278.764 188.435 278.764C190.623 278.764 192.397 276.431 192.397 273.552C192.397 270.674 190.623 268.341 188.435 268.341C186.247 268.341 184.474 270.674 184.474 273.552Z" fill="url(#paint29_linear_13871_7966)"/>
<path d="M183.372 274.139C183.372 277.017 185.146 279.351 187.334 279.351C189.522 279.351 191.296 277.017 191.296 274.139C191.296 271.261 189.522 268.928 187.334 268.928C185.146 268.928 183.372 271.261 183.372 274.139Z" fill="url(#paint30_linear_13871_7966)"/>
<path d="M185.677 274.245C185.677 275.451 186.42 276.429 187.337 276.429C188.254 276.429 188.997 275.451 188.997 274.245C188.997 273.039 188.254 272.062 187.337 272.062C186.42 272.062 185.677 273.039 185.677 274.245Z" fill="url(#paint31_linear_13871_7966)"/>
<path d="M188.433 267.778V273.501C188.433 274.341 187.752 275.022 186.911 275.022C186.426 275.022 185.969 274.79 185.683 274.398L180.536 267.351L188.433 267.778Z" fill="#C2C2C2"/>
<path d="M142.036 268.982C142.036 271.86 143.81 274.193 145.998 274.193C148.186 274.193 149.96 271.86 149.96 268.982C149.96 266.104 148.186 263.771 145.998 263.771C143.81 263.77 142.036 266.104 142.036 268.982Z" fill="url(#paint32_linear_13871_7966)"/>
<path d="M140.935 269.569C140.935 272.447 142.708 274.78 144.896 274.78C147.084 274.78 148.858 272.447 148.858 269.569C148.858 266.691 147.084 264.357 144.896 264.357C142.708 264.357 140.935 266.691 140.935 269.569Z" fill="url(#paint33_linear_13871_7966)"/>
<path d="M143.239 269.675C143.239 270.881 143.982 271.859 144.899 271.859C145.816 271.859 146.559 270.881 146.559 269.675C146.559 268.469 145.816 267.491 144.899 267.491C143.982 267.491 143.239 268.469 143.239 269.675Z" fill="url(#paint34_linear_13871_7966)"/>
<path d="M145.995 263.21V268.932C145.995 269.773 145.314 270.454 144.474 270.454C143.988 270.454 143.532 270.222 143.245 269.83L138.099 262.782L145.995 263.21Z" fill="#C2C2C2"/>
<path d="M189.007 268.669C189.528 268.669 189.978 268.277 190.037 267.747C190.102 267.177 189.691 266.663 189.121 266.598L138.892 260.938C136.158 260.468 133.878 258.39 133.143 255.653L112.102 177.316C110.981 173.145 107.333 170.143 103.025 169.846L87.7462 168.935C87.172 168.896 86.6814 169.337 86.6474 169.91C86.613 170.483 87.0497 170.975 87.6224 171.009L102.891 171.919C106.306 172.155 109.205 174.54 110.095 177.855L131.136 256.192C132.081 259.709 135.011 262.379 138.6 262.994L188.889 268.663C188.929 268.667 188.968 268.669 189.007 268.669Z" fill="white"/>
<path d="M154.06 237.832C154.512 237.832 154.928 237.534 155.058 237.078L166.887 195.689C167.044 195.137 166.725 194.562 166.173 194.404C165.623 194.247 165.047 194.567 164.889 195.118L153.061 236.507C152.903 237.058 153.223 237.633 153.774 237.791C153.869 237.818 153.966 237.832 154.06 237.832Z" fill="white"/>
<path d="M141.967 236.1C142.461 236.1 142.899 235.746 142.988 235.243L150.284 194.244C150.384 193.679 150.008 193.14 149.443 193.039C148.873 192.936 148.339 193.315 148.239 193.88L140.943 234.879C140.843 235.444 141.219 235.983 141.783 236.084C141.845 236.095 141.906 236.1 141.967 236.1Z" fill="white"/>
<path d="M134.446 234.756C134.46 234.756 134.474 234.755 134.489 234.755C135.062 234.731 135.508 234.247 135.484 233.674L133.8 193.109C133.777 192.536 133.318 192.081 132.719 192.114C132.146 192.138 131.701 192.622 131.725 193.195L133.408 233.76C133.431 234.319 133.892 234.756 134.446 234.756Z" fill="white"/>
<path d="M170.568 239.346C171.002 239.346 171.407 239.071 171.553 238.637L185.44 197.229C185.623 196.686 185.33 196.097 184.786 195.914C184.242 195.733 183.653 196.025 183.47 196.569L169.582 237.976C169.4 238.52 169.693 239.109 170.237 239.292C170.347 239.328 170.458 239.346 170.568 239.346Z" fill="white"/>
<path d="M52.0099 174.616C52.0673 174.616 52.1245 174.614 52.1828 174.609L86.3664 171.798C87.5098 171.704 88.361 170.701 88.2666 169.557C88.1728 168.413 87.1684 167.561 86.0255 167.657L51.842 170.467C50.6986 170.561 49.8474 171.564 49.9417 172.708C50.031 173.794 50.9396 174.616 52.0099 174.616Z" fill="url(#paint35_linear_13871_7966)"/>
<path d="M147.255 287.765C147.255 290.643 149.029 292.977 151.217 292.977C153.405 292.977 155.178 290.643 155.178 287.765C155.178 284.887 153.405 282.554 151.217 282.554C149.029 282.554 147.255 284.887 147.255 287.765Z" fill="url(#paint36_linear_13871_7966)"/>
<path d="M146.153 288.352C146.153 291.23 147.927 293.564 150.115 293.564C152.303 293.564 154.077 291.23 154.077 288.352C154.077 285.474 152.303 283.141 150.115 283.141C147.927 283.141 146.153 285.474 146.153 288.352Z" fill="url(#paint37_linear_13871_7966)"/>
<path d="M148.458 288.458C148.458 289.664 149.201 290.642 150.118 290.642C151.035 290.642 151.778 289.664 151.778 288.458C151.778 287.252 151.035 286.274 150.118 286.274C149.201 286.274 148.458 287.252 148.458 288.458Z" fill="url(#paint38_linear_13871_7966)"/>
<path d="M151.206 281.991V287.714C151.206 288.554 150.525 289.235 149.685 289.235C149.199 289.235 148.743 289.003 148.456 288.611L143.31 281.563L151.206 281.991Z" fill="#D5DBE2"/>
<path d="M110.521 284.091C110.521 286.969 112.294 289.303 114.482 289.303C116.67 289.303 118.444 286.969 118.444 284.091C118.444 281.213 116.67 278.88 114.482 278.88C112.294 278.88 110.521 281.213 110.521 284.091Z" fill="url(#paint39_linear_13871_7966)"/>
<path d="M109.419 284.679C109.419 287.557 111.193 289.891 113.381 289.891C115.569 289.891 117.342 287.557 117.342 284.679C117.342 281.801 115.569 279.468 113.381 279.468C111.193 279.468 109.419 281.801 109.419 284.679Z" fill="url(#paint40_linear_13871_7966)"/>
<path d="M111.724 284.784C111.724 285.99 112.467 286.968 113.384 286.968C114.3 286.968 115.044 285.99 115.044 284.784C115.044 283.578 114.3 282.601 113.384 282.601C112.467 282.601 111.724 283.578 111.724 284.784Z" fill="url(#paint41_linear_13871_7966)"/>
<path d="M114.487 278.317V284.04C114.487 284.88 113.806 285.561 112.966 285.561C112.48 285.561 112.024 285.329 111.737 284.937L106.591 277.89L114.487 278.317Z" fill="#D5DBE2"/>
<path d="M204.641 198.887C205.18 198.887 205.636 198.469 205.676 197.922C205.717 197.35 205.286 196.853 204.714 196.811L115.255 190.372C115.171 190.368 115.088 190.37 115.006 190.384L77.971 196.692C77.4054 196.789 77.025 197.325 77.1214 197.891C77.2178 198.456 77.7473 198.837 78.32 198.74L115.231 192.453L204.565 198.884C204.59 198.886 204.616 198.887 204.641 198.887Z" fill="white"/>
<path d="M174.243 208.118C174.345 208.118 174.447 208.103 174.545 208.073L204.941 198.844C205.49 198.678 205.8 198.097 205.634 197.548C205.466 196.999 204.883 196.691 204.338 196.856L174.138 206.025L78.2462 196.685C77.6659 196.622 77.1667 197.047 77.1114 197.618C77.0556 198.189 77.4737 198.697 78.0443 198.752L174.142 208.113C174.176 208.116 174.209 208.118 174.243 208.118Z" fill="#D5DBE2"/>
<path d="M89.7144 240.768C89.7671 240.768 89.8199 240.764 89.8736 240.756L126.316 235.165L181.761 240.501C182.331 240.555 182.84 240.137 182.894 239.566C182.949 238.995 182.531 238.488 181.959 238.433L126.386 233.084C126.302 233.076 126.214 233.078 126.129 233.091L89.558 238.703C88.9908 238.789 88.6018 239.32 88.689 239.887C88.7678 240.4 89.2107 240.768 89.7144 240.768Z" fill="#C2C2C2"/>
<path d="M155.794 247.051C156.192 247.051 156.559 246.822 156.732 246.457L175.18 207.522C175.425 207.003 175.204 206.384 174.686 206.138C174.168 205.893 173.547 206.113 173.302 206.632L155.166 244.909L89.8142 238.695C89.2349 238.64 88.7357 239.06 88.6815 239.631C88.6273 240.202 89.0462 240.71 89.6174 240.764L155.694 247.047C155.728 247.05 155.761 247.051 155.794 247.051Z" fill="#D5DBE2"/>
<path d="M155.793 247.053C155.877 247.053 155.962 247.043 156.047 247.022L182.114 240.477C182.395 240.406 182.634 240.222 182.773 239.968L205.55 198.349C205.825 197.846 205.64 197.214 205.137 196.939C204.633 196.664 204.002 196.849 203.727 197.352L181.168 238.573L155.541 245.007C154.984 245.147 154.647 245.711 154.787 246.268C154.905 246.739 155.328 247.053 155.793 247.053Z" fill="#D5DBE2"/>
<path d="M167.53 222.279C167.629 222.279 167.728 222.264 167.823 222.237L196.45 213.846C197.001 213.684 197.316 213.107 197.155 212.557C196.994 212.006 196.414 211.69 195.866 211.852L167.426 220.188L82.8919 212.815C82.3106 212.758 81.8165 213.189 81.7667 213.76C81.7165 214.332 82.1396 214.835 82.7113 214.885L167.44 222.275C167.47 222.277 167.501 222.279 167.53 222.279Z" fill="#D5DBE2"/>
<path d="M160.536 237.04C160.631 237.04 160.725 237.027 160.816 237.001L188.242 229.318C188.795 229.163 189.117 228.59 188.963 228.038C188.808 227.485 188.235 227.162 187.682 227.317L160.438 234.949L87.0326 228.528C86.4623 228.467 85.9571 228.901 85.9074 229.472C85.8571 230.044 86.2803 230.548 86.852 230.598L160.446 237.036C160.476 237.038 160.506 237.04 160.536 237.04Z" fill="#D5DBE2"/>
<path d="M142.303 245.767C142.75 245.767 143.163 245.476 143.298 245.025L155.063 205.554C155.226 205.004 154.913 204.425 154.364 204.262C153.816 204.097 153.235 204.41 153.071 204.961L141.306 244.431C141.142 244.981 141.455 245.56 142.005 245.724C142.104 245.753 142.204 245.767 142.303 245.767Z" fill="#D5DBE2"/>
<path d="M129.295 244.531C129.79 244.531 130.228 244.176 130.317 243.672L137.373 203.683C137.473 203.118 137.096 202.579 136.531 202.479C135.968 202.381 135.426 202.758 135.327 203.322L128.271 243.311C128.171 243.876 128.548 244.415 129.113 244.515C129.174 244.525 129.235 244.531 129.295 244.531Z" fill="#D5DBE2"/>
<path d="M114.607 242.861C115.155 242.861 115.613 242.433 115.644 241.88L117.868 202.174C117.9 201.6 117.461 201.11 116.889 201.078C116.312 201.056 115.825 201.484 115.793 202.057L113.569 241.763C113.537 242.337 113.975 242.827 114.548 242.859C114.568 242.86 114.588 242.861 114.607 242.861Z" fill="#D5DBE2"/>
<path d="M100.705 241.303C100.724 241.303 100.742 241.303 100.761 241.302C101.334 241.272 101.774 240.783 101.744 240.21L99.628 199.87C99.598 199.298 99.1146 198.858 98.5363 198.887C97.963 198.917 97.5233 199.406 97.5532 199.979L99.669 240.319C99.6979 240.873 100.157 241.303 100.705 241.303Z" fill="#D5DBE2"/>
<path d="M163.676 245.073C164.063 245.073 164.434 244.856 164.613 244.484L183.627 204.963C183.876 204.446 183.659 203.825 183.142 203.576C182.626 203.328 182.004 203.545 181.755 204.062L162.741 243.583C162.492 244.1 162.709 244.721 163.226 244.97C163.371 245.04 163.525 245.073 163.676 245.073Z" fill="#D5DBE2"/>
<path d="M174.238 242.419C174.62 242.419 174.987 242.209 175.169 241.845L195.353 201.413C195.61 200.9 195.401 200.276 194.888 200.019C194.373 199.762 193.749 199.972 193.494 200.485L173.31 240.916C173.053 241.43 173.262 242.054 173.775 242.31C173.924 242.384 174.083 242.419 174.238 242.419Z" fill="#D5DBE2"/>
<path d="M151.407 283.593C151.538 283.593 151.668 283.568 151.79 283.52L189.394 268.595C189.928 268.383 190.189 267.78 189.977 267.247C189.766 266.713 189.161 266.452 188.628 266.664L151.27 281.49L105.909 275.949C102.68 275.555 100.035 273.273 99.1709 270.137L74.3046 179.862C73.1698 175.742 69.5437 172.766 65.2816 172.458L52.0878 171.501C51.5217 171.468 51.018 171.889 50.9764 172.462C50.9352 173.034 51.3655 173.532 51.9376 173.574L65.1314 174.53C68.5185 174.775 71.3998 177.14 72.3018 180.414L97.1681 270.689C98.2567 274.64 101.588 277.514 105.657 278.012L151.282 283.585C151.323 283.59 151.365 283.593 151.407 283.593Z" fill="#D5DBE2"/>
<path d="M76.083 168.904C76.4114 168.893 80.9873 168.764 81.4222 170.118C81.5457 170.502 81.4324 170.883 81.4324 170.883C81.1924 171.691 80.1874 171.969 80.0415 172.007C81.5804 172.991 83.4361 172.727 84.3211 171.632C84.9408 170.866 85.1202 169.649 84.6286 168.714C84.1734 167.849 83.3118 167.513 82.8234 167.353C79.3996 166.229 76.083 168.904 76.083 168.904Z" fill="url(#paint42_linear_13871_7966)"/>
<defs>
<linearGradient id="paint0_linear_13871_7966" x1="-72.5715" y1="-793.067" x2="723.608" y2="-385.884" gradientUnits="userSpaceOnUse">
<stop stop-color="#00ACD4"/>
<stop offset="0.777012" stop-color="#EC008C"/>
</linearGradient>
<linearGradient id="paint1_linear_13871_7966" x1="224.213" y1="24.0871" x2="154.006" y2="205.607" gradientUnits="userSpaceOnUse">
<stop stop-color="#AA80F9"/>
<stop offset="0.9964" stop-color="#6165D7"/>
</linearGradient>
<linearGradient id="paint2_linear_13871_7966" x1="234.93" y1="128.612" x2="164.359" y2="207.55" gradientUnits="userSpaceOnUse">
<stop offset="0.0036" stop-color="#E38DDD"/>
<stop offset="1" stop-color="#9571F6"/>
</linearGradient>
<linearGradient id="paint3_linear_13871_7966" x1="39.8755" y1="49.9243" x2="108.965" y2="46.9204" gradientUnits="userSpaceOnUse">
<stop stop-color="#AB316D"/>
<stop offset="1" stop-color="#792D3D"/>
</linearGradient>
<linearGradient id="paint4_linear_13871_7966" x1="32.6533" y1="162.434" x2="97.2705" y2="162.434" gradientUnits="userSpaceOnUse">
<stop stop-color="#FF9085"/>
<stop offset="1" stop-color="#FB6FBB"/>
</linearGradient>
<linearGradient id="paint5_linear_13871_7966" x1="50.0986" y1="162.434" x2="97.2708" y2="162.434" gradientUnits="userSpaceOnUse">
<stop stop-color="#FF9085"/>
<stop offset="1" stop-color="#FB6FBB"/>
</linearGradient>
<linearGradient id="paint6_linear_13871_7966" x1="129.276" y1="151.508" x2="242.118" y2="341.629" gradientUnits="userSpaceOnUse">
<stop stop-color="#FF9085"/>
<stop offset="1" stop-color="#FB6FBB"/>
</linearGradient>
<linearGradient id="paint7_linear_13871_7966" x1="128.95" y1="134.636" x2="220.301" y2="349.174" gradientUnits="userSpaceOnUse">
<stop stop-color="#FF9085"/>
<stop offset="1" stop-color="#FB6FBB"/>
</linearGradient>
<linearGradient id="paint8_linear_13871_7966" x1="145.793" y1="-12.6937" x2="115.756" y2="243.699" gradientUnits="userSpaceOnUse">
<stop stop-color="#AB316D"/>
<stop offset="1" stop-color="#792D3D"/>
</linearGradient>
<linearGradient id="paint9_linear_13871_7966" x1="161.604" y1="-22.7288" x2="74.6953" y2="142.61" gradientUnits="userSpaceOnUse">
<stop stop-color="#AB316D"/>
<stop offset="1" stop-color="#792D3D"/>
</linearGradient>
<linearGradient id="paint10_linear_13871_7966" x1="216.374" y1="8.24418" x2="129.465" y2="173.582" gradientUnits="userSpaceOnUse">
<stop stop-color="#AB316D"/>
<stop offset="1" stop-color="#792D3D"/>
</linearGradient>
<linearGradient id="paint11_linear_13871_7966" x1="173.56" y1="181.038" x2="226.197" y2="269.935" gradientUnits="userSpaceOnUse">
<stop stop-color="#FFC444"/>
<stop offset="0.3138" stop-color="#FBA94A"/>
<stop offset="0.9964" stop-color="#F36F56"/>
</linearGradient>
<linearGradient id="paint12_linear_13871_7966" x1="219.164" y1="181.967" x2="267.104" y2="262.931" gradientUnits="userSpaceOnUse">
<stop stop-color="#FFC444"/>
<stop offset="0.3138" stop-color="#FBA94A"/>
<stop offset="0.9964" stop-color="#F36F56"/>
</linearGradient>
<linearGradient id="paint13_linear_13871_7966" x1="66.5113" y1="107.997" x2="49.4736" y2="107.997" gradientUnits="userSpaceOnUse">
<stop stop-color="#311944"/>
<stop offset="1" stop-color="#6B3976"/>
</linearGradient>
<linearGradient id="paint14_linear_13871_7966" x1="38.5578" y1="220.619" x2="5.80775" y2="242.897" gradientUnits="userSpaceOnUse">
<stop stop-color="#AB316D"/>
<stop offset="1" stop-color="#792D3D"/>
</linearGradient>
<linearGradient id="paint15_linear_13871_7966" x1="68.6426" y1="213.414" x2="40.1122" y2="202.287" gradientUnits="userSpaceOnUse">
<stop stop-color="#40447E"/>
<stop offset="0.9964" stop-color="#3C3B6B"/>
</linearGradient>
<linearGradient id="paint16_linear_13871_7966" x1="68.6426" y1="213.414" x2="40.1122" y2="202.287" gradientUnits="userSpaceOnUse">
<stop stop-color="#40447E"/>
<stop offset="0.9964" stop-color="#3C3B6B"/>
</linearGradient>
<linearGradient id="paint17_linear_13871_7966" x1="85.8981" y1="130.317" x2="62.1093" y2="152.929" gradientUnits="userSpaceOnUse">
<stop stop-color="#AA80F9"/>
<stop offset="0.9964" stop-color="#6165D7"/>
</linearGradient>
<linearGradient id="paint18_linear_13871_7966" x1="51.7722" y1="252.996" x2="45.618" y2="290.35" gradientUnits="userSpaceOnUse">
<stop stop-color="#AB316D"/>
<stop offset="1" stop-color="#792D3D"/>
</linearGradient>
<linearGradient id="paint19_linear_13871_7966" x1="54.8153" y1="189.48" x2="36.2253" y2="226.035" gradientUnits="userSpaceOnUse">
<stop stop-color="#40447E"/>
<stop offset="0.9964" stop-color="#3C3B6B"/>
</linearGradient>
<linearGradient id="paint20_linear_13871_7966" x1="46.4229" y1="182.836" x2="34.5405" y2="223.104" gradientUnits="userSpaceOnUse">
<stop stop-color="#40447E"/>
<stop offset="0.9964" stop-color="#3C3B6B"/>
</linearGradient>
<linearGradient id="paint21_linear_13871_7966" x1="58.9888" y1="144.716" x2="-7.68793" y2="184.196" gradientUnits="userSpaceOnUse">
<stop stop-color="#AA80F9"/>
<stop offset="0.9964" stop-color="#6165D7"/>
</linearGradient>
<linearGradient id="paint22_linear_13871_7966" x1="57.2486" y1="141.368" x2="60.011" y2="146.24" gradientUnits="userSpaceOnUse">
<stop stop-color="#FFC444"/>
<stop offset="0.9964" stop-color="#F36F56"/>
</linearGradient>
<linearGradient id="paint23_linear_13871_7966" x1="59.5489" y1="155.13" x2="66.4074" y2="136.465" gradientUnits="userSpaceOnUse">
<stop stop-color="#FFC444"/>
<stop offset="0.9964" stop-color="#F36F56"/>
</linearGradient>
<linearGradient id="paint24_linear_13871_7966" x1="58.3678" y1="149.027" x2="47.9031" y2="156.039" gradientUnits="userSpaceOnUse">
<stop stop-color="#311944"/>
<stop offset="1" stop-color="#A03976"/>
</linearGradient>
<linearGradient id="paint25_linear_13871_7966" x1="48.9686" y1="134.708" x2="62.2013" y2="105.424" gradientUnits="userSpaceOnUse">
<stop stop-color="#311944"/>
<stop offset="1" stop-color="#893976"/>
</linearGradient>
<linearGradient id="paint26_linear_13871_7966" x1="53.2753" y1="131.489" x2="56.4329" y2="113.355" gradientUnits="userSpaceOnUse">
<stop stop-color="#311944"/>
<stop offset="1" stop-color="#A03976"/>
</linearGradient>
<linearGradient id="paint27_linear_13871_7966" x1="60.4897" y1="144.395" x2="-7.96891" y2="184.93" gradientUnits="userSpaceOnUse">
<stop stop-color="#AA80F9"/>
<stop offset="0.9964" stop-color="#6165D7"/>
</linearGradient>
<linearGradient id="paint28_linear_13871_7966" x1="42.3233" y1="137.228" x2="7.70283" y2="159.166" gradientUnits="userSpaceOnUse">
<stop stop-color="#AA80F9"/>
<stop offset="0.9964" stop-color="#6165D7"/>
</linearGradient>
<linearGradient id="paint29_linear_13871_7966" x1="192.715" y1="269.954" x2="190.523" y2="271.797" gradientUnits="userSpaceOnUse">
<stop stop-color="#AA80F9"/>
<stop offset="0.9964" stop-color="#6165D7"/>
</linearGradient>
<linearGradient id="paint30_linear_13871_7966" x1="191.295" y1="274.139" x2="183.372" y2="274.139" gradientUnits="userSpaceOnUse">
<stop stop-color="#AA80F9"/>
<stop offset="0.9964" stop-color="#6165D7"/>
</linearGradient>
<linearGradient id="paint31_linear_13871_7966" x1="188.997" y1="274.245" x2="185.677" y2="274.245" gradientUnits="userSpaceOnUse">
<stop stop-color="#40447E"/>
<stop offset="0.9964" stop-color="#3C3B6B"/>
</linearGradient>
<linearGradient id="paint32_linear_13871_7966" x1="150.277" y1="265.383" x2="148.086" y2="267.226" gradientUnits="userSpaceOnUse">
<stop stop-color="#AA80F9"/>
<stop offset="0.9964" stop-color="#6165D7"/>
</linearGradient>
<linearGradient id="paint33_linear_13871_7966" x1="148.858" y1="269.569" x2="140.935" y2="269.569" gradientUnits="userSpaceOnUse">
<stop stop-color="#AA80F9"/>
<stop offset="0.9964" stop-color="#6165D7"/>
</linearGradient>
<linearGradient id="paint34_linear_13871_7966" x1="146.559" y1="269.675" x2="143.239" y2="269.675" gradientUnits="userSpaceOnUse">
<stop stop-color="#40447E"/>
<stop offset="0.9964" stop-color="#3C3B6B"/>
</linearGradient>
<linearGradient id="paint35_linear_13871_7966" x1="88.2738" y1="171.133" x2="49.9346" y2="171.133" gradientUnits="userSpaceOnUse">
<stop stop-color="#40447E"/>
<stop offset="0.9964" stop-color="#3C3B6B"/>
</linearGradient>
<linearGradient id="paint36_linear_13871_7966" x1="155.496" y1="284.166" x2="153.304" y2="286.009" gradientUnits="userSpaceOnUse">
<stop stop-color="#AA80F9"/>
<stop offset="0.9964" stop-color="#6165D7"/>
</linearGradient>
<linearGradient id="paint37_linear_13871_7966" x1="154.077" y1="288.352" x2="146.153" y2="288.352" gradientUnits="userSpaceOnUse">
<stop stop-color="#AA80F9"/>
<stop offset="0.9964" stop-color="#6165D7"/>
</linearGradient>
<linearGradient id="paint38_linear_13871_7966" x1="151.778" y1="288.458" x2="148.458" y2="288.458" gradientUnits="userSpaceOnUse">
<stop stop-color="#40447E"/>
<stop offset="0.9964" stop-color="#3C3B6B"/>
</linearGradient>
<linearGradient id="paint39_linear_13871_7966" x1="118.762" y1="280.493" x2="116.57" y2="282.336" gradientUnits="userSpaceOnUse">
<stop stop-color="#AA80F9"/>
<stop offset="0.9964" stop-color="#6165D7"/>
</linearGradient>
<linearGradient id="paint40_linear_13871_7966" x1="117.342" y1="284.679" x2="109.419" y2="284.679" gradientUnits="userSpaceOnUse">
<stop stop-color="#AA80F9"/>
<stop offset="0.9964" stop-color="#6165D7"/>
</linearGradient>
<linearGradient id="paint41_linear_13871_7966" x1="115.044" y1="284.784" x2="111.724" y2="284.784" gradientUnits="userSpaceOnUse">
<stop stop-color="#40447E"/>
<stop offset="0.9964" stop-color="#3C3B6B"/>
</linearGradient>
<linearGradient id="paint42_linear_13871_7966" x1="76.5759" y1="162.959" x2="80.695" y2="169.325" gradientUnits="userSpaceOnUse">
<stop stop-color="#311944"/>
<stop offset="1" stop-color="#A03976"/>
</linearGradient>
</defs>
</svg>
